<?xml version="1.0" encoding="utf-8"?>
<!-- Generator: Adobe Illustrator 16.0.4, SVG Export Plug-In . SVG Version: 6.00 Build 0)  -->
<!DOCTYPE svg PUBLIC "-//W3C//DTD SVG 1.1//EN" "http://www.w3.org/Graphics/SVG/1.1/DTD/svg11.dtd">
<svg version="1.1" id="Layer_1" xmlns="http://www.w3.org/2000/svg" xmlns:xlink="http://www.w3.org/1999/xlink" x="0px" y="0px"
	 width="841.889px" height="1190.551px" viewBox="0 0 841.889 1190.551" enable-background="new 0 0 841.889 1190.551"
	 xml:space="preserve">
<g>
	<path fill="#FFFFFF" d="M43.533,542.807C15.356,570.99,16.535,616.476,44.71,644.66l324.324,322.945
		c28.175,28.175,73.867,28.175,102.047,0l323.136-323.137c28.171-28.181,28.171-73.864,0-102.047L471.08,219.282
		c-28.18-28.172-73.868-28.172-102.047,0L43.533,542.807z"/>
</g>
<g>
	<path fill="#a0136c" d="M369.033,219.282l-17.471,17.471l151.49,248.429l88.938-144.988L471.08,219.282
		C442.901,191.11,397.212,191.11,369.033,219.282z"/>
	<path fill="#a0136c" d="M235.445,356.968v317.807H114.752L90.698,494.473l-47.165,48.739
		c-28.177,28.182-26.999,73.465,1.176,101.649l80.085,79.31c12.53-16.996,32.63-28.176,55.368-28.176
		c38.004,0,68.812,30.758,68.812,68.764c0,18.656-7.449,35.523-19.503,47.915c-1.418,3.64-3.082,7.106-5.041,10.345l20.054,20.04
		l160.247-235.694L235.445,356.968z"/>
	<path fill="#a0136c" d="M357.017,955.585l12.017,12.021c28.175,28.175,73.867,28.175,102.047,0l114.789-114.787l-82.816-126.672
		L357.017,955.585z"/>
	<path fill="#a0136c" d="M794.216,542.421l-90.272-90.275L603.522,599.892l94.877,140.402l95.817-95.826
		C822.387,616.288,822.387,570.604,794.216,542.421z"/>
</g>
</svg>
