<?xml version="1.0" encoding="utf-8"?>
<!-- Generator: Adobe Illustrator 18.0.0, SVG Export Plug-In . SVG Version: 6.00 Build 0)  -->
<!DOCTYPE svg PUBLIC "-//W3C//DTD SVG 1.1//EN" "http://www.w3.org/Graphics/SVG/1.1/DTD/svg11.dtd">
<svg version="1.1" id="Layer_1" xmlns="http://www.w3.org/2000/svg" xmlns:xlink="http://www.w3.org/1999/xlink" x="0px" y="0px"
	 viewBox="0 0 86.3 86.3" enable-background="new 0 0 86.3 86.3" xml:space="preserve">
<g>
	<g>
		<g>
			<path fill="#7C3D97" d="M82,39.6c1.9,1.9,1.9,5.1,0,7.1L46.7,82c-1.9,1.9-5.1,1.9-7.1,0L4.2,46.7c-1.9-1.9-1.9-5.1,0-7.1
				L39.6,4.2c1.9-1.9,5.1-1.9,7.1,0L82,39.6z"/>
		</g>
		<g>
			<path fill="#7C3D97" d="M46.7,82.7c-1.9,1.9-5.1,1.9-7.1,0L3.5,46.7c-1.9-1.9-1.9-5.1,0-7.1L39.6,3.5c1.9-1.9,5.1-1.9,7.1,0
				l36.1,36.1c1.9,1.9,1.9,5.1,0,7.1L46.7,82.7z M4.9,39.6c-1.9,1.9-1.9,5.1,0,7.1l34.6,34.6c1.9,1.9,5.1,1.9,7.1,0l34.6-34.6
				c1.9-1.9,1.9-5.1,0-7.1L46.7,4.9c-1.9-1.9-5.1-1.9-7.1,0L4.9,39.6z"/>
		</g>
	</g>
</g>
<path fill="#FFFFFF" d="M33.6,52.1c0,1.9-1.3,3.3-3.3,3.3c-1.9,0-3.2-1.3-3.2-3.3c0-1.9,1.3-3.2,3.2-3.2
	C32.3,48.9,33.6,50.2,33.6,52.1z M32.5,46.9h-4.2l-1.2-9.2v-6.3h6.6v6.3L32.5,46.9z"/>
<g>
	<polygon fill="#FFFFFF" points="43,55.4 60.3,31.4 52,31.4 48,37.6 44,31.4 35.7,31.4 43.7,43.2 35.2,55.4 	"/>
	<polygon fill="#FFFFFF" points="49.9,51.4 52.5,55.4 61.1,55.4 54.2,45.4 	"/>
</g>
</svg>
